<?xml version="1.0" standalone="yes"?>

<svg version="1.1" viewBox="0.0 0.0 855.0 295.0" fill="none" stroke="none" stroke-linecap="square" stroke-miterlimit="10" xmlns="http://www.w3.org/2000/svg" xmlns:xlink="http://www.w3.org/1999/xlink"><clipPath id="p.0"><path d="m0 0l855.0 0l0 295.0l-855.0 0l0 -295.0z" clip-rule="nonzero"></path></clipPath><g clip-path="url(#p.0)"><path fill="#000000" fill-opacity="0.0" d="m0 0l855.64044 0l0 295.15747l-855.64044 0z" fill-rule="nonzero"></path><path fill="#4a86e8" d="m23.225721 28.17323l182.70866 0l0 260.126l-182.70866 0z" fill-rule="nonzero"></path><path stroke="#000000" stroke-width="2.0" stroke-linejoin="round" stroke-linecap="butt" d="m23.225721 28.17323l182.70866 0l0 260.126l-182.70866 0z" fill-rule="nonzero"></path><path fill="#b7b7b7" d="m47.225723 124.16318l0 0c0 -12.399834 10.052055 -22.451889 22.451889 -22.451889l89.804886 0l0 0c5.954605 0 11.665329 2.3654556 15.875885 6.576004c4.210541 4.2105484 6.576004 9.921272 6.576004 15.875885l0 94.46629c0 12.399841 -10.052048 22.451889 -22.451889 22.451889l-89.804886 0c-12.399834 0 -22.451889 -10.052048 -22.451889 -22.451889z" fill-rule="nonzero"></path><path stroke="#000000" stroke-width="2.0" stroke-linejoin="round" stroke-linecap="butt" d="m47.225723 124.16318l0 0c0 -12.399834 10.052055 -22.451889 22.451889 -22.451889l89.804886 0l0 0c5.954605 0 11.665329 2.3654556 15.875885 6.576004c4.210541 4.2105484 6.576004 9.921272 6.576004 15.875885l0 94.46629c0 12.399841 -10.052048 22.451889 -22.451889 22.451889l-89.804886 0c-12.399834 0 -22.451889 -10.052048 -22.451889 -22.451889z" fill-rule="nonzero"></path><path fill="#000000" d="m63.348534 174.45694l1.625 -0.21875q0.0625 1.546875 0.578125 2.125q0.53125 0.578125 1.4375 0.578125q0.6875 0 1.171875 -0.3125q0.5 -0.3125 0.671875 -0.84375q0.1875 -0.53125 0.1875 -1.703125l0 -9.359375l1.8125 0l0 9.265625q0 1.703125 -0.421875 2.640625q-0.40625 0.9375 -1.3125 1.4375q-0.890625 0.484375 -2.09375 0.484375q-1.796875 0 -2.75 -1.03125q-0.9375 -1.03125 -0.90625 -3.0625zm9.640625 -0.515625l1.6875 -0.140625q0.125 1.015625 0.5625 1.671875q0.4375 0.65625 1.359375 1.0625q0.9375 0.40625 2.09375 0.40625q1.03125 0 1.8125 -0.3125q0.796875 -0.3125 1.1875 -0.84375q0.390625 -0.53125 0.390625 -1.15625q0 -0.640625 -0.375 -1.109375q-0.375 -0.484375 -1.234375 -0.8125q-0.546875 -0.21875 -2.421875 -0.65625q-1.875 -0.453125 -2.625 -0.859375q-0.96875 -0.515625 -1.453125 -1.265625q-0.46875 -0.75 -0.46875 -1.6875q0 -1.03125 0.578125 -1.921875q0.59375 -0.90625 1.703125 -1.359375q1.125 -0.46875 2.5 -0.46875q1.515625 0 2.671875 0.484375q1.15625 0.484375 1.765625 1.4375q0.625 0.9375 0.671875 2.140625l-1.71875 0.125q-0.140625 -1.28125 -0.953125 -1.9375q-0.796875 -0.671875 -2.359375 -0.671875q-1.625 0 -2.375 0.609375q-0.75 0.59375 -0.75 1.4375q0 0.734375 0.53125 1.203125q0.515625 0.46875 2.703125 0.96875q2.203125 0.5 3.015625 0.875q1.1875 0.546875 1.75 1.390625q0.578125 0.828125 0.578125 1.921875q0 1.09375 -0.625 2.0625q-0.625 0.953125 -1.796875 1.484375q-1.15625 0.53125 -2.609375 0.53125q-1.84375 0 -3.09375 -0.53125q-1.25 -0.546875 -1.96875 -1.625q-0.703125 -1.078125 -0.734375 -2.453125zm12.506073 -2.25q0 -3.390625 1.8125 -5.296875q1.828125 -1.921875 4.703125 -1.921875q1.875 0 3.390625 0.90625q1.515625 0.890625 2.296875 2.5q0.796875 1.609375 0.796875 3.65625q0 2.0625 -0.84375 3.703125q-0.828125 1.625 -2.359375 2.46875q-1.53125 0.84375 -3.296875 0.84375q-1.921875 0 -3.4375 -0.921875q-1.5 -0.9375 -2.28125 -2.53125q-0.78125 -1.609375 -0.78125 -3.40625zm1.859375 0.03125q0 2.453125 1.3125 3.875q1.328125 1.40625 3.3125 1.40625q2.03125 0 3.34375 -1.421875q1.3125 -1.4375 1.3125 -4.0625q0 -1.65625 -0.5625 -2.890625q-0.546875 -1.234375 -1.640625 -1.921875q-1.078125 -0.6875 -2.421875 -0.6875q-1.90625 0 -3.28125 1.3125q-1.375 1.3125 -1.375 4.390625zm13.183304 6.59375l0 -13.59375l1.84375 0l7.140625 10.671875l0 -10.671875l1.71875 0l0 13.59375l-1.84375 0l-7.140625 -10.6875l0 10.6875l-1.71875 0zm18.765625 0l0 -13.59375l9.171867 0l0 1.59375l-7.3749924 0l0 4.21875l6.375 0l0 1.609375l-6.375 0l0 6.171875l-1.796875 0zm11.099098 -11.6875l0 -1.90625l1.671875 0l0 1.90625l-1.671875 0zm0 11.6875l0 -9.859375l1.671875 0l0 9.859375l-1.671875 0zm4.097946 0l0 -13.59375l1.671875 0l0 13.59375l-1.671875 0zm10.926071 -3.171875l1.71875 0.21875q-0.40625 1.5 -1.515625 2.34375q-1.09375 0.828125 -2.8125 0.828125q-2.15625 0 -3.421875 -1.328125q-1.265625 -1.328125 -1.265625 -3.734375q0 -2.484375 1.265625 -3.859375q1.28125 -1.375 3.328125 -1.375q1.984375 0 3.234375 1.34375q1.25 1.34375 1.25 3.796875q0 0.140625 -0.015625 0.4375l-7.34375 0q0.09375 1.625 0.921875 2.484375q0.828125 0.859375 2.0625 0.859375q0.90625 0 1.546875 -0.46875q0.65625 -0.484375 1.046875 -1.546875zm-5.484375 -2.703125l5.5 0q-0.109375 -1.234375 -0.625 -1.859375q-0.796875 -0.96875 -2.078125 -0.96875q-1.140625 0 -1.9375 0.78125q-0.78125 0.765625 -0.859375 2.046875z" fill-rule="nonzero"></path><path fill="#4a86e8" d="m34.060368 57.587925l161.03938 0l0 32.50394l-161.03938 0z" fill-rule="nonzero"></path><path fill="#000000" d="m44.450993 84.50793l0 -13.59375l2.75 0l0 5.34375l5.375 0l0 -5.34375l2.75 0l0 13.59375l-2.75 0l0 -5.953125l-5.375 0l0 5.953125l-2.75 0zm16.519821 0l0 -11.296875l-4.03125 0l0 -2.296875l10.812496 0l0 2.296875l-4.031246 0l0 11.296875l-2.75 0zm11.395977 0l0 -11.296875l-4.03125 0l0 -2.296875l10.8125 0l0 2.296875l-4.03125 0l0 11.296875l-2.75 0zm8.333481 0l0 -13.59375l4.421875 0q2.5 0 3.265625 0.203125q1.15625 0.296875 1.9375 1.328125q0.796875 1.015625 0.796875 2.640625q0 1.25 -0.453125 2.109375q-0.453125 0.859375 -1.15625 1.34375q-0.703125 0.484375 -1.421875 0.640625q-0.984375 0.203125 -2.84375 0.203125l-1.796875 0l0 5.125l-2.75 0zm2.75 -11.296875l0 3.859375l1.5 0q1.625 0 2.171875 -0.21875q0.546875 -0.21875 0.859375 -0.671875q0.3125 -0.453125 0.3125 -1.046875q0 -0.75 -0.4375 -1.234375q-0.4375 -0.484375 -1.09375 -0.59375q-0.5 -0.09375 -1.984375 -0.09375l-1.328125 0zm14.189377 6.875l2.671875 -0.265625q0.234375 1.34375 0.96875 1.984375q0.75 0.625 2.0 0.625q1.328125 0 2.0 -0.5625q0.671875 -0.5625 0.671875 -1.3125q0 -0.484375 -0.28125 -0.8125q-0.28125 -0.34375 -0.984375 -0.59375q-0.484375 -0.171875 -2.203125 -0.59375q-2.203125 -0.546875 -3.09375 -1.34375q-1.265625 -1.125 -1.265625 -2.734375q0 -1.046875 0.59375 -1.953125q0.59375 -0.90625 1.703125 -1.375q1.109375 -0.46875 2.671875 -0.46875q2.5625 0 3.859375 1.125q1.296875 1.109375 1.359375 2.984375l-2.75 0.125q-0.171875 -1.046875 -0.75 -1.5q-0.578125 -0.46875 -1.75 -0.46875q-1.1875 0 -1.875 0.5q-0.4375 0.3125 -0.4375 0.84375q0 0.484375 0.421875 0.828125q0.515625 0.421875 2.515625 0.90625q2.0 0.46875 2.953125 0.984375q0.96875 0.5 1.515625 1.375q0.546875 0.875 0.546875 2.15625q0 1.171875 -0.65625 2.203125q-0.640625 1.015625 -1.828125 1.515625q-1.1875 0.484375 -2.96875 0.484375q-2.578125 0 -3.96875 -1.1875q-1.375 -1.1875 -1.640625 -3.46875zm13.131073 4.421875l0 -13.59375l10.09375 0l0 2.296875l-7.34375 0l0 3.015625l6.828125 0l0 2.28125l-6.828125 0l0 3.703125l7.609375 0l0 2.296875l-10.359375 0zm12.459198 0l0 -13.59375l5.78125 0q2.1875 0 3.171875 0.359375q0.984375 0.359375 1.578125 1.296875q0.59375 0.9375 0.59375 2.15625q0 1.53125 -0.90625 2.53125q-0.890625 0.984375 -2.6875 1.25q0.890625 0.515625 1.46875 1.140625q0.578125 0.625 1.5625 2.203125l1.671875 2.65625l-3.296875 0l-1.984375 -2.953125q-1.046875 -1.59375 -1.4375 -2.0q-0.390625 -0.421875 -0.828125 -0.5625q-0.4375 -0.15625 -1.390625 -0.15625l-0.546875 0l0 5.671875l-2.75 0zm2.75 -7.84375l2.03125 0q1.96875 0 2.453125 -0.171875q0.5 -0.171875 0.78125 -0.578125q0.28125 -0.40625 0.28125 -1.015625q0 -0.6875 -0.375 -1.109375q-0.359375 -0.421875 -1.03125 -0.53125q-0.328125 -0.046875 -2.0 -0.046875l-2.140625 0l0 3.453125zm14.191696 7.84375l-4.875 -13.59375l2.984375 0l3.4375 10.0625l3.328125 -10.0625l2.921875 0l-4.875 13.59375l-2.921875 0zm8.959198 0l0 -13.59375l10.09375 0l0 2.296875l-7.34375 0l0 3.015625l6.828125 0l0 2.28125l-6.828125 0l0 3.703125l7.609375 0l0 2.296875l-10.359375 0zm12.459198 0l0 -13.59375l5.78125 0q2.1875 0 3.171875 0.359375q0.984375 0.359375 1.578125 1.296875q0.59375 0.9375 0.59375 2.15625q0 1.53125 -0.90625 2.53125q-0.890625 0.984375 -2.6875 1.25q0.890625 0.515625 1.46875 1.140625q0.578125 0.625 1.5625 2.203125l1.671875 2.65625l-3.296875 0l-1.984375 -2.953125q-1.046875 -1.59375 -1.4375 -2.0q-0.390625 -0.421875 -0.828125 -0.5625q-0.4375 -0.15625 -1.390625 -0.15625l-0.546875 0l0 5.671875l-2.75 0zm2.75 -7.84375l2.03125 0q1.96875 0 2.453125 -0.171875q0.5 -0.171875 0.78125 -0.578125q0.28125 -0.40625 0.28125 -1.015625q0 -0.6875 -0.375 -1.109375q-0.359375 -0.421875 -1.03125 -0.53125q-0.328125 -0.046875 -2.0 -0.046875l-2.140625 0l0 3.453125z" fill-rule="nonzero"></path><path fill="#ff9900" d="m187.35432 183.39633l369.30707 0l0 -9.67717l19.35437 19.354324l-19.35437 19.35434l0 -9.67717l-369.30707 0z" fill-rule="nonzero"></path><path stroke="#000000" stroke-width="2.0" stroke-linejoin="round" stroke-linecap="butt" d="m187.35432 183.39633l369.30707 0l0 -9.67717l19.35437 19.354324l-19.35437 19.35434l0 -9.67717l-369.30707 0z" fill-rule="nonzero"></path><path fill="#000000" d="m197.74495 199.99348l0 -13.59375l2.75 0l0 5.34375l5.375 0l0 -5.34375l2.75 0l0 13.59375l-2.75 0l0 -5.953125l-5.375 0l0 5.953125l-2.75 0zm16.519821 0l0 -11.296875l-4.03125 0l0 -2.296875l10.8125 0l0 2.296875l-4.03125 0l0 11.296875l-2.75 0zm11.395981 0l0 -11.296875l-4.03125 0l0 -2.296875l10.8125 0l0 2.296875l-4.03125 0l0 11.296875l-2.75 0zm8.333481 0l0 -13.59375l4.421875 0q2.5 0 3.265625 0.203125q1.15625 0.296875 1.9375 1.328125q0.796875 1.015625 0.796875 2.640625q0 1.25 -0.453125 2.109375q-0.453125 0.859375 -1.15625 1.34375q-0.703125 0.484375 -1.421875 0.640625q-0.984375 0.203125 -2.84375 0.203125l-1.796875 0l0 5.125l-2.75 0zm2.75 -11.296875l0 3.859375l1.5 0q1.625 0 2.171875 -0.21875q0.546875 -0.21875 0.859375 -0.671875q0.3125 -0.453125 0.3125 -1.046875q0 -0.75 -0.4375 -1.234375q-0.4375 -0.484375 -1.09375 -0.59375q-0.5 -0.09375 -1.984375 -0.09375l-1.328125 0zm14.892502 11.296875l0 -13.59375l5.7812653 0q2.1875 0 3.171875 0.359375q0.984375 0.359375 1.578125 1.296875q0.59375 0.9375 0.59375 2.15625q0 1.53125 -0.90625 2.53125q-0.890625 0.984375 -2.6875 1.25q0.890625 0.515625 1.46875 1.140625q0.578125 0.625 1.5625 2.203125l1.671875 2.65625l-3.296875 0l-1.984375 -2.953125q-1.046875 -1.59375 -1.4375 -2.0q-0.390625 -0.421875 -0.828125 -0.5625q-0.43751526 -0.15625 -1.3906403 -0.15625l-0.546875 0l0 5.671875l-2.75 0zm2.75 -7.84375l2.0312653 0q1.96875 0 2.453125 -0.171875q0.5 -0.171875 0.78125 -0.578125q0.28125 -0.40625 0.28125 -1.015625q0 -0.6875 -0.375 -1.109375q-0.359375 -0.421875 -1.03125 -0.53125q-0.328125 -0.046875 -2.0 -0.046875l-2.1406403 0l0 3.453125zm10.707321 7.84375l0 -13.59375l10.09375 0l0 2.296875l-7.34375 0l0 3.015625l6.828125 0l0 2.28125l-6.828125 0l0 3.703125l7.609375 0l0 2.296875l-10.359375 0zm11.756073 -4.421875l2.671875 -0.265625q0.234375 1.34375 0.96875 1.984375q0.75 0.625 2.0 0.625q1.328125 0 2.0 -0.5625q0.671875 -0.5625 0.671875 -1.3125q0 -0.484375 -0.28125 -0.8125q-0.28125 -0.34375 -0.984375 -0.59375q-0.484375 -0.171875 -2.203125 -0.59375q-2.203125 -0.546875 -3.09375 -1.34375q-1.265625 -1.125 -1.265625 -2.734375q0 -1.046875 0.59375 -1.953125q0.59375 -0.90625 1.703125 -1.375q1.109375 -0.46875 2.671875 -0.46875q2.5625 0 3.859375 1.125q1.296875 1.109375 1.359375 2.984375l-2.75 0.125q-0.171875 -1.046875 -0.75 -1.5q-0.578125 -0.46875 -1.75 -0.46875q-1.1875 0 -1.875 0.5q-0.4375 0.3125 -0.4375 0.84375q0 0.484375 0.421875 0.828125q0.515625 0.421875 2.515625 0.90625q2.0 0.46875 2.953125 0.984375q0.96875 0.5 1.515625 1.375q0.546875 0.875 0.546875 2.15625q0 1.171875 -0.65625 2.203125q-0.640625 1.015625 -1.828125 1.515625q-1.1875 0.484375 -2.96875 0.484375q-2.578125 0 -3.96875 -1.1875q-1.375 -1.1875 -1.640625 -3.46875zm13.131073 4.421875l0 -13.59375l4.421875 0q2.5 0 3.265625 0.203125q1.15625 0.296875 1.9375 1.328125q0.796875 1.015625 0.796875 2.640625q0 1.25 -0.453125 2.109375q-0.453125 0.859375 -1.15625 1.34375q-0.703125 0.484375 -1.421875 0.640625q-0.984375 0.203125 -2.84375 0.203125l-1.796875 0l0 5.125l-2.75 0zm2.75 -11.296875l0 3.859375l1.5 0q1.625 0 2.171875 -0.21875q0.546875 -0.21875 0.859375 -0.671875q0.3125 -0.453125 0.3125 -1.046875q0 -0.75 -0.4375 -1.234375q-0.4375 -0.484375 -1.09375 -0.59375q-0.5 -0.09375 -1.984375 -0.09375l-1.328125 0zm9.146698 4.578125q0 -2.078125 0.625 -3.484375q0.453125 -1.046875 1.25 -1.859375q0.8125 -0.828125 1.765625 -1.234375q1.28125 -0.53125 2.9375 -0.53125q3.0 0 4.796875 1.859375q1.8125 1.859375 1.8125 5.1875q0 3.296875 -1.796875 5.15625q-1.78125 1.859375 -4.78125 1.859375q-3.03125 0 -4.828125 -1.84375q-1.78125 -1.859375 -1.78125 -5.109375zm2.828125 -0.09375q0 2.3125 1.0625 3.515625q1.078125 1.1875 2.71875 1.1875q1.640625 0 2.6875 -1.1875q1.046875 -1.1875 1.046875 -3.546875q0 -2.34375 -1.03125 -3.484375q-1.015625 -1.15625 -2.703125 -1.15625q-1.703125 0 -2.75 1.171875q-1.03125 1.15625 -1.03125 3.5zm12.261444 6.8125l0 -13.59375l2.671875 0l5.578125 9.078125l0 -9.078125l2.546875 0l0 13.59375l-2.765625 0l-5.46875 -8.875l0 8.875l-2.5625 0zm12.754181 -4.421875l2.671875 -0.265625q0.234375 1.34375 0.96875 1.984375q0.75 0.625 2.0 0.625q1.328125 0 2.0 -0.5625q0.671875 -0.5625 0.671875 -1.3125q0 -0.484375 -0.28125 -0.8125q-0.28125 -0.34375 -0.984375 -0.59375q-0.484375 -0.171875 -2.203125 -0.59375q-2.203125 -0.546875 -3.09375 -1.34375q-1.265625 -1.125 -1.265625 -2.734375q0 -1.046875 0.59375 -1.953125q0.59375 -0.90625 1.703125 -1.375q1.109375 -0.46875 2.671875 -0.46875q2.5625 0 3.859375 1.125q1.296875 1.109375 1.359375 2.984375l-2.75 0.125q-0.171875 -1.046875 -0.75 -1.5q-0.578125 -0.46875 -1.75 -0.46875q-1.1875 0 -1.875 0.5q-0.4375 0.3125 -0.4375 0.84375q0 0.484375 0.421875 0.828125q0.515625 0.421875 2.515625 0.90625q2.0 0.46875 2.953125 0.984375q0.96875 0.5 1.515625 1.375q0.546875 0.875 0.546875 2.15625q0 1.171875 -0.65625 2.203125q-0.640625 1.015625 -1.828125 1.515625q-1.1875 0.484375 -2.96875 0.484375q-2.578125 0 -3.96875 -1.1875q-1.375 -1.1875 -1.640625 -3.46875zm13.131073 4.421875l0 -13.59375l10.09375 0l0 2.296875l-7.34375 0l0 3.015625l6.828125 0l0 2.28125l-6.828125 0l0 3.703125l7.609375 0l0 2.296875l-10.359375 0z" fill-rule="nonzero"></path><path fill="#6aa84f" d="m576.0131 28.17323l260.11548 0l0 260.126l-260.11548 0z" fill-rule="nonzero"></path><path stroke="#000000" stroke-width="2.0" stroke-linejoin="round" stroke-linecap="butt" d="m576.0131 28.17323l260.11548 0l0 260.126l-260.11548 0z" fill-rule="nonzero"></path><path fill="#000000" d="m586.3881 151.56248l5.015625 0q1.703125 0 2.59375 0.25q1.1875 0.359375 2.046875 1.265625q0.859375 0.890625 1.296875 2.203125q0.453125 1.296875 0.453125 3.203125q0 1.6875 -0.421875 2.890625q-0.515625 1.484375 -1.453125 2.40625q-0.71875 0.703125 -1.9375 1.09375q-0.90625 0.28125 -2.421875 0.28125l-5.171875 0l0 -13.59375zm2.75 2.296875l0 9.0l2.046875 0q1.140625 0 1.65625 -0.125q0.671875 -0.171875 1.109375 -0.5625q0.4375 -0.40625 0.71875 -1.3125q0.28125 -0.921875 0.28125 -2.5q0 -1.578125 -0.28125 -2.421875q-0.28125 -0.84375 -0.78125 -1.3125q-0.5 -0.46875 -1.265625 -0.640625q-0.578125 -0.125 -2.25 -0.125l-1.234375 0zm16.410461 8.15625l2.609375 0.4375q-0.5 1.4375 -1.59375 2.1875q-1.078125 0.734375 -2.703125 0.734375q-2.5625 0 -3.796875 -1.671875q-0.96875 -1.34375 -0.96875 -3.40625q0 -2.4375 1.265625 -3.828125q1.28125 -1.390625 3.25 -1.390625q2.1875 0 3.453125 1.453125q1.28125 1.453125 1.234375 4.453125l-6.53125 0q0.015625 1.15625 0.625 1.8125q0.609375 0.640625 1.5 0.640625q0.609375 0 1.03125 -0.328125q0.421875 -0.34375 0.625 -1.09375zm0.15625 -2.625q-0.03125 -1.140625 -0.59375 -1.71875q-0.546875 -0.59375 -1.34375 -0.59375q-0.859375 0 -1.40625 0.625q-0.5625 0.609375 -0.546875 1.6875l3.890625 0zm6.4694824 -1.078125l-2.359375 -0.4375q0.390625 -1.421875 1.359375 -2.109375q0.984375 -0.6875 2.90625 -0.6875q1.734375 0 2.59375 0.421875q0.859375 0.40625 1.203125 1.046875q0.34375 0.625 0.34375 2.328125l-0.03125 3.046875q0 1.296875 0.125 1.921875q0.125 0.609375 0.46875 1.3125l-2.578125 0q-0.09375 -0.265625 -0.25 -0.765625q-0.0625 -0.234375 -0.09375 -0.3125q-0.65625 0.65625 -1.421875 0.984375q-0.765625 0.3125 -1.625 0.3125q-1.515625 0 -2.40625 -0.8125q-0.875 -0.828125 -0.875 -2.09375q0 -0.84375 0.390625 -1.484375q0.40625 -0.65625 1.125 -1.0q0.71875 -0.359375 2.078125 -0.625q1.828125 -0.328125 2.53125 -0.625l0 -0.265625q0 -0.75 -0.375 -1.0625q-0.359375 -0.328125 -1.390625 -0.328125q-0.703125 0 -1.09375 0.28125q-0.390625 0.265625 -0.625 0.953125zm3.484375 2.109375q-0.5 0.171875 -1.59375 0.40625q-1.078125 0.234375 -1.40625 0.453125q-0.515625 0.359375 -0.515625 0.921875q0 0.546875 0.40625 0.953125q0.40625 0.390625 1.046875 0.390625q0.703125 0 1.34375 -0.46875q0.46875 -0.359375 0.625 -0.859375q0.09375 -0.34375 0.09375 -1.28125l0 -0.515625zm9.453796 -5.125l0 2.078125l-1.78125 0l0 3.984375q0 1.203125 0.046875 1.40625q0.0625 0.1875 0.234375 0.328125q0.1875 0.125 0.453125 0.125q0.359375 0 1.046875 -0.25l0.21875 2.015625q-0.90625 0.390625 -2.0625 0.390625q-0.703125 0 -1.265625 -0.234375q-0.5625 -0.234375 -0.828125 -0.609375q-0.265625 -0.375 -0.375 -1.015625q-0.078125 -0.453125 -0.078125 -1.84375l0 -4.296875l-1.203125 0l0 -2.078125l1.203125 0l0 -1.953125l2.609375 -1.515625l0 3.46875l1.78125 0zm4.3064575 -3.734375l0 5.0q1.25 -1.484375 3.015625 -1.484375q0.890625 0 1.609375 0.34375q0.734375 0.328125 1.09375 0.84375q0.375 0.515625 0.5 1.15625q0.140625 0.625 0.140625 1.953125l0 5.78125l-2.609375 0l0 -5.203125q0 -1.546875 -0.15625 -1.96875q-0.140625 -0.421875 -0.515625 -0.65625q-0.375 -0.25 -0.9375 -0.25q-0.65625 0 -1.171875 0.3125q-0.5 0.3125 -0.734375 0.953125q-0.234375 0.640625 -0.234375 1.875l0 4.9375l-2.609375 0l0 -13.59375l2.609375 0zm14.016785 13.59375l0 -13.59375l2.671875 0l5.578125 9.078125l0 -9.078125l2.546875 0l0 13.59375l-2.765625 0l-5.46875 -8.875l0 8.875l-2.5625 0zm12.832336 -5.0625q0 -1.296875 0.640625 -2.515625q0.640625 -1.21875 1.8125 -1.859375q1.171875 -0.640625 2.609375 -0.640625q2.25 0 3.671875 1.453125q1.421875 1.453125 1.421875 3.671875q0 2.234375 -1.4375 3.703125q-1.4375 1.46875 -3.625 1.46875q-1.359375 0 -2.59375 -0.609375q-1.21875 -0.609375 -1.859375 -1.796875q-0.640625 -1.1875 -0.640625 -2.875zm2.671875 0.140625q0 1.46875 0.6875 2.25q0.703125 0.765625 1.71875 0.765625q1.015625 0 1.703125 -0.765625q0.703125 -0.78125 0.703125 -2.265625q0 -1.453125 -0.703125 -2.234375q-0.6875 -0.78125 -1.703125 -0.78125q-1.015625 0 -1.71875 0.78125q-0.6875 0.78125 -0.6875 2.25zm13.833435 -4.9375l0 2.078125l-1.78125 0l0 3.984375q0 1.203125 0.046875 1.40625q0.0625 0.1875 0.234375 0.328125q0.1875 0.125 0.453125 0.125q0.359375 0 1.046875 -0.25l0.21875 2.015625q-0.90625 0.390625 -2.0625 0.390625q-0.703125 0 -1.265625 -0.234375q-0.5625 -0.234375 -0.828125 -0.609375q-0.265625 -0.375 -0.375 -1.015625q-0.078125 -0.453125 -0.078125 -1.84375l0 -4.296875l-1.203125 0l0 -2.078125l1.203125 0l0 -1.953125l2.609375 -1.515625l0 3.46875l1.78125 0zm1.6970825 -1.328125l0 -2.40625l2.609375 0l0 2.40625l-2.609375 0zm0 11.1875l0 -9.859375l2.609375 0l0 9.859375l-2.609375 0zm13.777039 -6.9375l-2.5625 0.46875q-0.140625 -0.78125 -0.59375 -1.171875q-0.453125 -0.390625 -1.1875 -0.390625q-0.984375 0 -1.5625 0.671875q-0.578125 0.671875 -0.578125 2.25q0 1.765625 0.578125 2.484375q0.59375 0.71875 1.59375 0.71875q0.75 0 1.21875 -0.421875q0.46875 -0.421875 0.671875 -1.453125l2.546875 0.4375q-0.390625 1.765625 -1.53125 2.671875q-1.125 0.890625 -3.03125 0.890625q-2.15625 0 -3.453125 -1.359375q-1.28125 -1.359375 -1.28125 -3.78125q0 -2.4375 1.296875 -3.796875q1.296875 -1.359375 3.484375 -1.359375q1.796875 0 2.859375 0.78125q1.0625 0.765625 1.53125 2.359375zm7.4851074 3.796875l2.609375 0.4375q-0.5 1.4375 -1.59375 2.1875q-1.078125 0.734375 -2.703125 0.734375q-2.5625 0 -3.796875 -1.671875q-0.96875 -1.34375 -0.96875 -3.40625q0 -2.4375 1.265625 -3.828125q1.28125 -1.390625 3.25 -1.390625q2.1875 0 3.453125 1.453125q1.28125 1.453125 1.234375 4.453125l-6.53125 0q0.015625 1.15625 0.625 1.8125q0.609375 0.640625 1.5 0.640625q0.609375 0 1.03125 -0.328125q0.421875 -0.34375 0.625 -1.09375zm0.15625 -2.625q-0.03125 -1.140625 -0.59375 -1.71875q-0.546875 -0.59375 -1.34375 -0.59375q-0.859375 0 -1.40625 0.625q-0.5625 0.609375 -0.546875 1.6875l3.890625 0zm3.6101074 2.953125l2.609375 -0.390625q0.171875 0.75 0.671875 1.15625q0.515625 0.390625 1.4375 0.390625q1.0 0 1.515625 -0.375q0.34375 -0.265625 0.34375 -0.703125q0 -0.296875 -0.1875 -0.484375q-0.1875 -0.1875 -0.875 -0.34375q-3.140625 -0.703125 -4.0 -1.265625q-1.15625 -0.796875 -1.15625 -2.21875q0 -1.28125 1.0 -2.15625q1.015625 -0.875 3.140625 -0.875q2.03125 0 3.0 0.65625q0.984375 0.65625 1.359375 1.953125l-2.453125 0.453125q-0.15625 -0.578125 -0.609375 -0.875q-0.4375 -0.3125 -1.25 -0.3125q-1.03125 0 -1.46875 0.296875q-0.296875 0.203125 -0.296875 0.515625q0 0.28125 0.25 0.484375q0.359375 0.25 2.4375 0.734375q2.078125 0.46875 2.90625 1.15625q0.828125 0.6875 0.828125 1.9375q0 1.359375 -1.140625 2.328125q-1.125 0.96875 -3.34375 0.96875q-2.015625 0 -3.1875 -0.8125q-1.171875 -0.8125 -1.53125 -2.21875zm28.746521 2.8125l-2.984375 0l-1.1875 -3.09375l-5.4375 0l-1.125 3.09375l-2.90625 0l5.296875 -13.59375l2.90625 0l5.4375 13.59375zm-5.046875 -5.375l-1.875 -5.046875l-1.84375 5.046875l3.71875 0zm6.1760254 -4.484375l2.421875 0l0 1.453125q0.46875 -0.734375 1.28125 -1.203125q0.8125 -0.46875 1.796875 -0.46875q1.703125 0 2.90625 1.34375q1.203125 1.34375 1.203125 3.75q0 2.46875 -1.21875 3.84375q-1.203125 1.359375 -2.921875 1.359375q-0.8125 0 -1.484375 -0.3125q-0.65625 -0.328125 -1.390625 -1.125l0 4.96875l-2.59375 0l0 -13.609375zm2.578125 4.765625q0 1.65625 0.65625 2.453125q0.65625 0.796875 1.59375 0.796875q0.921875 0 1.515625 -0.71875q0.609375 -0.734375 0.609375 -2.40625q0 -1.546875 -0.625 -2.296875q-0.625 -0.75 -1.53125 -0.75q-0.96875 0 -1.59375 0.734375q-0.625 0.734375 -0.625 2.1875zm8.817871 -4.765625l2.421875 0l0 1.453125q0.46875 -0.734375 1.28125 -1.203125q0.8125 -0.46875 1.796875 -0.46875q1.703125 0 2.90625 1.34375q1.203125 1.34375 1.203125 3.75q0 2.46875 -1.21875 3.84375q-1.203125 1.359375 -2.921875 1.359375q-0.8125 0 -1.484375 -0.3125q-0.65625 -0.328125 -1.390625 -1.125l0 4.96875l-2.59375 0l0 -13.609375zm2.578125 4.765625q0 1.65625 0.65625 2.453125q0.65625 0.796875 1.59375 0.796875q0.921875 0 1.515625 -0.71875q0.609375 -0.734375 0.609375 -2.40625q0 -1.546875 -0.625 -2.296875q-0.625 -0.75 -1.53125 -0.75q-0.96875 0 -1.59375 0.734375q-0.625 0.734375 -0.625 2.1875zm8.880371 5.09375l0 -13.59375l2.609375 0l0 13.59375l-2.609375 0zm5.1832886 -11.1875l0 -2.40625l2.609375 0l0 2.40625l-2.609375 0zm0 11.1875l0 -9.859375l2.609375 0l0 9.859375l-2.609375 0zm13.777039 -6.9375l-2.5625 0.46875q-0.140625 -0.78125 -0.59375 -1.171875q-0.453125 -0.390625 -1.1875 -0.390625q-0.984375 0 -1.5625 0.671875q-0.578125 0.671875 -0.578125 2.25q0 1.765625 0.578125 2.484375q0.59375 0.71875 1.59375 0.71875q0.75 0 1.21875 -0.421875q0.46875 -0.421875 0.671875 -1.453125l2.546875 0.4375q-0.390625 1.765625 -1.53125 2.671875q-1.125 0.890625 -3.03125 0.890625q-2.15625 0 -3.453125 -1.359375q-1.28125 -1.359375 -1.28125 -3.78125q0 -2.4375 1.296875 -3.796875q1.296875 -1.359375 3.484375 -1.359375q1.796875 0 2.859375 0.78125q1.0625 0.765625 1.53125 2.359375zm3.7351074 0.09375l-2.359375 -0.4375q0.390625 -1.421875 1.359375 -2.109375q0.984375 -0.6875 2.90625 -0.6875q1.734375 0 2.59375 0.421875q0.859375 0.40625 1.203125 1.046875q0.34375 0.625 0.34375 2.328125l-0.03125 3.046875q0 1.296875 0.125 1.921875q0.125 0.609375 0.46875 1.3125l-2.578125 0q-0.09375 -0.265625 -0.25 -0.765625q-0.0625 -0.234375 -0.09375 -0.3125q-0.65625 0.65625 -1.421875 0.984375q-0.765625 0.3125 -1.625 0.3125q-1.515625 0 -2.40625 -0.8125q-0.875 -0.828125 -0.875 -2.09375q0 -0.84375 0.390625 -1.484375q0.40625 -0.65625 1.125 -1.0q0.71875 -0.359375 2.078125 -0.625q1.828125 -0.328125 2.53125 -0.625l0 -0.265625q0 -0.75 -0.375 -1.0625q-0.359375 -0.328125 -1.390625 -0.328125q-0.703125 0 -1.09375 0.28125q-0.390625 0.265625 -0.625 0.953125zm3.484375 2.109375q-0.5 0.171875 -1.59375 0.40625q-1.078125 0.234375 -1.40625 0.453125q-0.515625 0.359375 -0.515625 0.921875q0 0.546875 0.40625 0.953125q0.40625 0.390625 1.046875 0.390625q0.703125 0 1.34375 -0.46875q0.46875 -0.359375 0.625 -0.859375q0.09375 -0.34375 0.09375 -1.28125l0 -0.515625zm9.453857 -5.125l0 2.078125l-1.78125 0l0 3.984375q0 1.203125 0.046875 1.40625q0.0625 0.1875 0.234375 0.328125q0.1875 0.125 0.453125 0.125q0.359375 0 1.046875 -0.25l0.21875 2.015625q-0.90625 0.390625 -2.0625 0.390625q-0.703125 0 -1.265625 -0.234375q-0.5625 -0.234375 -0.828125 -0.609375q-0.265625 -0.375 -0.375 -1.015625q-0.078125 -0.453125 -0.078125 -1.84375l0 -4.296875l-1.203125 0l0 -2.078125l1.203125 0l0 -1.953125l2.609375 -1.515625l0 3.46875l1.78125 0zm1.6970215 -1.328125l0 -2.40625l2.609375 0l0 2.40625l-2.609375 0zm0 11.1875l0 -9.859375l2.609375 0l0 9.859375l-2.609375 0zm4.5895996 -5.0625q0 -1.296875 0.640625 -2.515625q0.640625 -1.21875 1.8125 -1.859375q1.171875 -0.640625 2.609375 -0.640625q2.25 0 3.671875 1.453125q1.421875 1.453125 1.421875 3.671875q0 2.234375 -1.4375 3.703125q-1.4375 1.46875 -3.625 1.46875q-1.359375 0 -2.59375 -0.609375q-1.21875 -0.609375 -1.859375 -1.796875q-0.640625 -1.1875 -0.640625 -2.875zm2.671875 0.140625q0 1.46875 0.6875 2.25q0.703125 0.765625 1.71875 0.765625q1.015625 0 1.703125 -0.765625q0.703125 -0.78125 0.703125 -2.265625q0 -1.453125 -0.703125 -2.234375q-0.6875 -0.78125 -1.703125 -0.78125q-1.015625 0 -1.71875 0.78125q-0.6875 0.78125 -0.6875 2.25zm18.28656 4.921875l-2.609375 0l0 -5.03125q0 -1.59375 -0.171875 -2.0625q-0.15625 -0.46875 -0.53125 -0.71875q-0.375 -0.265625 -0.90625 -0.265625q-0.6875 0 -1.234375 0.375q-0.53125 0.359375 -0.734375 0.984375q-0.1875 0.609375 -0.1875 2.25l0 4.46875l-2.609375 0l0 -9.859375l2.421875 0l0 1.453125q1.296875 -1.671875 3.25 -1.671875q0.859375 0 1.578125 0.3125q0.71875 0.3125 1.078125 0.796875q0.359375 0.484375 0.5 1.09375q0.15625 0.609375 0.15625 1.75l0 6.125z" fill-rule="nonzero"></path><path fill="#bf9000" d="m701.41986 190.23535l0 0c0 -9.121643 27.382874 -16.51619 61.161438 -16.51619c33.778503 0 61.161377 7.3945465 61.161377 16.51619l0 66.06473c0 9.121643 -27.382874 16.516205 -61.161377 16.516205c-33.778564 0 -61.161438 -7.394562 -61.161438 -16.516205z" fill-rule="nonzero"></path><path fill="#000000" fill-opacity="0.0" d="m823.7427 190.23535l0 0c0 9.121628 -27.382874 16.516174 -61.161377 16.516174c-33.778564 0 -61.161438 -7.3945465 -61.161438 -16.516174" fill-rule="nonzero"></path><path fill="#000000" fill-opacity="0.0" d="m701.41986 190.23535l0 0c0 -9.121643 27.382874 -16.51619 61.161438 -16.51619c33.778503 0 61.161377 7.3945465 61.161377 16.51619l0 66.06473c0 9.121643 -27.382874 16.516205 -61.161377 16.516205c-33.778564 0 -61.161438 -7.394562 -61.161438 -16.516205z" fill-rule="nonzero"></path><path stroke="#000000" stroke-width="2.0" stroke-linejoin="round" stroke-linecap="butt" d="m823.7427 190.23535l0 0c0 9.121628 -27.382874 16.516174 -61.161377 16.516174c-33.778564 0 -61.161438 -7.3945465 -61.161438 -16.516174" fill-rule="nonzero"></path><path stroke="#000000" stroke-width="2.0" stroke-linejoin="round" stroke-linecap="butt" d="m701.41986 190.23535l0 0c0 -9.121643 27.382874 -16.51619 61.161438 -16.51619c33.778503 0 61.161377 7.3945465 61.161377 16.51619l0 66.06473c0 9.121643 -27.382874 16.516205 -61.161377 16.516205c-33.778564 0 -61.161438 -7.394562 -61.161438 -16.516205z" fill-rule="nonzero"></path><path fill="#000000" d="m711.10736 234.02393l2.671875 -0.265625q0.234375 1.34375 0.96875 1.984375q0.75 0.625 2.0 0.625q1.328125 0 2.0 -0.5625q0.671875 -0.5625 0.671875 -1.3125q0 -0.484375 -0.28125 -0.8125q-0.28125 -0.34375 -0.984375 -0.59375q-0.484375 -0.171875 -2.203125 -0.59375q-2.203125 -0.546875 -3.09375 -1.34375q-1.265625 -1.125 -1.265625 -2.734375q0 -1.046875 0.59375 -1.953125q0.59375 -0.90625 1.703125 -1.375q1.109375 -0.46875 2.671875 -0.46875q2.5625 0 3.859375 1.125q1.296875 1.109375 1.359375 2.984375l-2.75 0.125q-0.171875 -1.046875 -0.75 -1.5q-0.578125 -0.46875 -1.75 -0.46875q-1.1875 0 -1.875 0.5q-0.4375 0.3125 -0.4375 0.84375q0 0.484375 0.421875 0.828125q0.515625 0.421875 2.515625 0.90625q2.0 0.46875 2.953125 0.984375q0.96875 0.5 1.515625 1.375q0.546875 0.875 0.546875 2.15625q0 1.171875 -0.65625 2.203125q-0.640625 1.015625 -1.828125 1.515625q-1.1875 0.484375 -2.96875 0.484375q-2.578125 0 -3.96875 -1.1875q-1.375 -1.1875 -1.640625 -3.46875zm24.084229 2.703125q1.015625 0.71875 2.203125 1.140625l-1.015625 1.9375q-0.625 -0.1875 -1.21875 -0.5q-0.125 -0.078125 -1.828125 -1.21875q-1.328125 0.59375 -2.953125 0.59375q-3.140625 0 -4.921875 -1.84375q-1.765625 -1.84375 -1.765625 -5.1875q0 -3.328125 1.78125 -5.171875q1.78125 -1.859375 4.828125 -1.859375q3.03125 0 4.796875 1.859375q1.78125 1.84375 1.78125 5.171875q0 1.765625 -0.5 3.09375q-0.375 1.015625 -1.1875 1.984375zm-2.203125 -1.5625q0.53125 -0.609375 0.78125 -1.484375q0.265625 -0.890625 0.265625 -2.03125q0 -2.359375 -1.046875 -3.515625q-1.03125 -1.171875 -2.703125 -1.171875q-1.671875 0 -2.71875 1.171875q-1.046875 1.171875 -1.046875 3.515625q0 2.375 1.046875 3.5625q1.046875 1.1875 2.640625 1.1875q0.59375 0 1.125 -0.203125q-0.84375 -0.546875 -1.703125 -0.84375l0.765625 -1.578125q1.359375 0.46875 2.59375 1.390625zm5.8395386 3.28125l0 -13.484375l2.75 0l0 11.1875l6.828125 0l0 2.296875l-9.578125 0zm11.302246 -11.1875l0 -2.40625l2.609375 0l0 2.40625l-2.609375 0zm0 11.1875l0 -9.859375l2.609375 0l0 9.859375l-2.609375 0zm9.698914 -9.859375l0 2.078125l-1.78125 0l0 3.984375q0 1.203125 0.046875 1.40625q0.0625 0.1875 0.234375 0.328125q0.1875 0.125 0.453125 0.125q0.359375 0 1.046875 -0.25l0.21875 2.015625q-0.90625 0.390625 -2.0625 0.390625q-0.703125 0 -1.265625 -0.234375q-0.5625 -0.234375 -0.828125 -0.609375q-0.265625 -0.375 -0.375 -1.015625q-0.078125 -0.453125 -0.078125 -1.84375l0 -4.296875l-1.203125 0l0 -2.078125l1.203125 0l0 -1.953125l2.609375 -1.515625l0 3.46875l1.78125 0zm7.4001465 6.71875l2.609375 0.4375q-0.5 1.4375 -1.59375 2.1875q-1.078125 0.734375 -2.703125 0.734375q-2.5625 0 -3.796875 -1.671875q-0.96875 -1.34375 -0.96875 -3.40625q0 -2.4375 1.265625 -3.828125q1.28125 -1.390625 3.25 -1.390625q2.1875 0 3.453125 1.453125q1.28125 1.453125 1.234375 4.453125l-6.53125 0q0.015625 1.15625 0.625 1.8125q0.609375 0.640625 1.5 0.640625q0.609375 0 1.03125 -0.328125q0.421875 -0.34375 0.625 -1.09375zm0.15625 -2.625q-0.03125 -1.140625 -0.59375 -1.71875q-0.546875 -0.59375 -1.34375 -0.59375q-0.859375 0 -1.40625 0.625q-0.5625 0.609375 -0.546875 1.6875l3.890625 0zm9.715271 -7.828125l5.015625 0q1.703125 0 2.59375 0.25q1.1875 0.359375 2.046875 1.265625q0.859375 0.890625 1.296875 2.203125q0.453125 1.296875 0.453125 3.203125q0 1.6875 -0.421875 2.890625q-0.515625 1.484375 -1.453125 2.40625q-0.71875 0.703125 -1.9375 1.09375q-0.90625 0.28125 -2.421875 0.28125l-5.171875 0l0 -13.59375zm2.75 2.296875l0 9.0l2.046875 0q1.140625 0 1.65625 -0.125q0.671875 -0.171875 1.109375 -0.5625q0.4375 -0.40625 0.71875 -1.3125q0.28125 -0.921875 0.28125 -2.5q0 -1.578125 -0.28125 -2.421875q-0.28125 -0.84375 -0.78125 -1.3125q-0.5 -0.46875 -1.265625 -0.640625q-0.578125 -0.125 -2.25 -0.125l-1.234375 0zm10.738586 -2.296875l5.4375 0q1.609375 0 2.40625 0.140625q0.796875 0.125 1.421875 0.546875q0.625 0.421875 1.03125 1.140625q0.421875 0.703125 0.421875 1.59375q0 0.953125 -0.515625 1.75q-0.5 0.796875 -1.390625 1.1875q1.25 0.375 1.90625 1.25q0.671875 0.859375 0.671875 2.046875q0 0.921875 -0.4375 1.796875q-0.421875 0.875 -1.171875 1.40625q-0.75 0.515625 -1.84375 0.640625q-0.6875 0.078125 -3.3125 0.09375l-4.625 0l0 -13.59375zm2.75 2.25l0 3.15625l1.796875 0q1.609375 0 2.0 -0.046875q0.703125 -0.09375 1.09375 -0.484375q0.40625 -0.40625 0.40625 -1.0625q0 -0.640625 -0.34375 -1.03125q-0.34375 -0.390625 -1.03125 -0.484375q-0.40625 -0.046875 -2.34375 -0.046875l-1.578125 0zm0 5.421875l0 3.625l2.546875 0q1.484375 0 1.875 -0.078125q0.609375 -0.109375 1.0 -0.53125q0.390625 -0.4375 0.390625 -1.171875q0 -0.609375 -0.296875 -1.03125q-0.296875 -0.421875 -0.859375 -0.609375q-0.5625 -0.203125 -2.4375 -0.203125l-2.21875 0z" fill-rule="nonzero"></path><path fill="#cfe2f3" d="m580.6457 213.79002l110.04724 0l0 -9.102356l18.204712 18.204727l-18.204712 18.204712l0 -9.102356l-110.04724 0z" fill-rule="nonzero"></path><path stroke="#000000" stroke-width="2.0" stroke-linejoin="round" stroke-linecap="butt" d="m580.6457 213.79002l110.04724 0l0 -9.102356l18.204712 18.204727l-18.204712 18.204712l0 -9.102356l-110.04724 0z" fill-rule="nonzero"></path><path fill="#000000" d="m600.81757 225.04677l1.796875 0.453125q-0.5625 2.21875 -2.03125 3.390625q-1.46875 1.15625 -3.59375 1.15625q-2.203125 0 -3.578125 -0.890625q-1.375 -0.90625 -2.09375 -2.59375q-0.71875 -1.703125 -0.71875 -3.65625q0 -2.125 0.796875 -3.703125q0.8125 -1.578125 2.3125 -2.390625q1.5 -0.828125 3.296875 -0.828125q2.046875 0 3.4375 1.046875q1.390625 1.03125 1.9375 2.90625l-1.765625 0.421875q-0.46875 -1.484375 -1.375 -2.15625q-0.90625 -0.6875 -2.265625 -0.6875q-1.5625 0 -2.625 0.75q-1.046875 0.75 -1.484375 2.03125q-0.421875 1.265625 -0.421875 2.609375q0 1.734375 0.5 3.03125q0.515625 1.28125 1.578125 1.921875q1.078125 0.640625 2.3125 0.640625q1.515625 0 2.5625 -0.859375q1.046875 -0.875 1.421875 -2.59375zm9.988525 3.546875q-0.9375 0.796875 -1.796875 1.125q-0.859375 0.3125 -1.84375 0.3125q-1.609375 0 -2.484375 -0.78125q-0.875 -0.796875 -0.875 -2.03125q0 -0.734375 0.328125 -1.328125q0.328125 -0.59375 0.859375 -0.953125q0.53125 -0.359375 1.203125 -0.546875q0.5 -0.140625 1.484375 -0.25q2.03125 -0.25 2.984375 -0.578125q0 -0.34375 0 -0.4375q0 -1.015625 -0.46875 -1.4375q-0.640625 -0.5625 -1.90625 -0.5625q-1.171875 0 -1.734375 0.40625q-0.5625 0.40625 -0.828125 1.46875l-1.640625 -0.234375q0.234375 -1.046875 0.734375 -1.6875q0.515625 -0.640625 1.46875 -0.984375q0.96875 -0.359375 2.25 -0.359375q1.265625 0 2.046875 0.296875q0.78125 0.296875 1.15625 0.75q0.375 0.453125 0.515625 1.140625q0.09375 0.421875 0.09375 1.53125l0 2.234375q0 2.328125 0.09375 2.953125q0.109375 0.609375 0.4375 1.171875l-1.75 0q-0.265625 -0.515625 -0.328125 -1.21875zm-0.140625 -3.71875q-0.90625 0.359375 -2.734375 0.625q-1.03125 0.140625 -1.453125 0.328125q-0.421875 0.1875 -0.65625 0.546875q-0.234375 0.359375 -0.234375 0.796875q0 0.671875 0.5 1.125q0.515625 0.4375 1.484375 0.4375q0.96875 0 1.71875 -0.421875q0.75 -0.4375 1.109375 -1.15625q0.265625 -0.578125 0.265625 -1.671875l0 -0.609375zm10.516357 1.328125l1.640625 0.21875q-0.265625 1.6875 -1.375 2.65625q-1.109375 0.953125 -2.734375 0.953125q-2.015625 0 -3.25 -1.3125q-1.21875 -1.328125 -1.21875 -3.796875q0 -1.59375 0.515625 -2.78125q0.53125 -1.203125 1.609375 -1.796875q1.09375 -0.609375 2.359375 -0.609375q1.609375 0 2.625 0.8125q1.015625 0.8125 1.3125 2.3125l-1.625 0.25q-0.234375 -1.0 -0.828125 -1.5q-0.59375 -0.5 -1.421875 -0.5q-1.265625 0 -2.0625 0.90625q-0.78125 0.90625 -0.78125 2.859375q0 1.984375 0.765625 2.890625q0.765625 0.890625 1.984375 0.890625q0.984375 0 1.640625 -0.59375q0.65625 -0.609375 0.84375 -1.859375zm2.890625 3.609375l0 -13.59375l1.671875 0l0 4.875q1.171875 -1.359375 2.953125 -1.359375q1.09375 0 1.890625 0.4375q0.8125 0.421875 1.15625 1.1875q0.359375 0.765625 0.359375 2.203125l0 6.25l-1.671875 0l0 -6.25q0 -1.25 -0.546875 -1.8125q-0.546875 -0.578125 -1.53125 -0.578125q-0.75 0 -1.40625 0.390625q-0.640625 0.375 -0.921875 1.046875q-0.28125 0.65625 -0.28125 1.8125l0 5.390625l-1.671875 0zm17.125732 -3.171875l1.71875 0.21875q-0.40625 1.5 -1.515625 2.34375q-1.09375 0.828125 -2.8125 0.828125q-2.15625 0 -3.421875 -1.328125q-1.265625 -1.328125 -1.265625 -3.734375q0 -2.484375 1.265625 -3.859375q1.28125 -1.375 3.328125 -1.375q1.984375 0 3.234375 1.34375q1.25 1.34375 1.25 3.796875q0 0.140625 -0.015625 0.4375l-7.34375 0q0.09375 1.625 0.921875 2.484375q0.828125 0.859375 2.0625 0.859375q0.90625 0 1.546875 -0.46875q0.65625 -0.484375 1.046875 -1.546875zm-5.484375 -2.703125l5.5 0q-0.109375 -1.234375 -0.625 -1.859375q-0.796875 -0.96875 -2.078125 -0.96875q-1.140625 0 -1.9375 0.78125q-0.78125 0.765625 -0.859375 2.046875z" fill-rule="nonzero"></path><path fill="#ff9900" d="m205.93439 115.65354l24.0 -24.0l0 12.0l364.66138 0l0 24.0l-364.66138 0l0 12.000008z" fill-rule="nonzero"></path><path stroke="#000000" stroke-width="2.0" stroke-linejoin="round" stroke-linecap="butt" d="m205.93439 115.65354l24.0 -24.0l0 12.0l364.66138 0l0 24.0l-364.66138 0l0 12.000008z" fill-rule="nonzero"></path><path fill="#000000" d="m228.32501 122.57354l0 -13.59375l2.75 0l0 5.34375l5.375 0l0 -5.34375l2.75 0l0 13.59375l-2.75 0l0 -5.953125l-5.375 0l0 5.953125l-2.75 0zm16.519821 0l0 -11.296875l-4.03125 0l0 -2.296875l10.8125 0l0 2.296875l-4.03125 0l0 11.296875l-2.75 0zm11.395981 0l0 -11.296875l-4.03125 0l0 -2.296875l10.8125 0l0 2.296875l-4.03125 0l0 11.296875l-2.75 0zm8.333466 0l0 -13.59375l4.421875 0q2.5 0 3.265625 0.203125q1.15625 0.296875 1.9375 1.328125q0.796875 1.015625 0.796875 2.640625q0 1.25 -0.453125 2.109375q-0.453125 0.859375 -1.15625 1.34375q-0.703125 0.484375 -1.421875 0.640625q-0.984375 0.203125 -2.84375 0.203125l-1.796875 0l0 5.125l-2.75 0zm2.75 -11.296875l0 3.859375l1.5 0q1.625 0 2.171875 -0.21875q0.546875 -0.21875 0.859375 -0.671875q0.3125 -0.453125 0.3125 -1.046875q0 -0.75 -0.4375 -1.234375q-0.4375 -0.484375 -1.09375 -0.59375q-0.5 -0.09375 -1.984375 -0.09375l-1.328125 0zm21.205017 6.296875l0 -2.296875l5.921875 0l0 5.421875q-0.859375 0.828125 -2.5 1.46875q-1.640625 0.640625 -3.3125 0.640625q-2.140625 0 -3.734375 -0.890625q-1.578125 -0.90625 -2.375 -2.5625q-0.796875 -1.671875 -0.796875 -3.625q0 -2.125 0.890625 -3.78125q0.890625 -1.65625 2.609375 -2.53125q1.3125 -0.671875 3.25 -0.671875q2.546875 0 3.96875 1.0625q1.421875 1.0625 1.828125 2.9375l-2.734375 0.5q-0.28125 -1.0 -1.078125 -1.578125q-0.796875 -0.578125 -1.984375 -0.578125q-1.796875 0 -2.859375 1.140625q-1.0625 1.140625 -1.0625 3.390625q0 2.421875 1.078125 3.640625q1.078125 1.203125 2.828125 1.203125q0.859375 0 1.71875 -0.34375q0.875 -0.34375 1.5 -0.828125l0 -1.71875l-3.15625 0zm8.183289 5.0l0 -13.59375l10.09375 0l0 2.296875l-7.34375 0l0 3.015625l6.828125 0l0 2.28125l-6.828125 0l0 3.703125l7.609375 0l0 2.296875l-10.359375 0zm15.506073 0l0 -11.296875l-4.03125 0l0 -2.296875l10.8125 0l0 2.296875l-4.03125 0l0 11.296875l-2.75 0zm13.53241 0l0 -13.59375l5.78125 0q2.1875 0 3.171875 0.359375q0.984375 0.359375 1.578125 1.296875q0.59375 0.9375 0.59375 2.15625q0 1.53125 -0.90625 2.53125q-0.890625 0.984375 -2.6875 1.25q0.890625 0.515625 1.46875 1.140625q0.578125 0.625 1.5625 2.203125l1.671875 2.65625l-3.296875 0l-1.984375 -2.953125q-1.046875 -1.59375 -1.4375 -2.0q-0.390625 -0.421875 -0.828125 -0.5625q-0.4375 -0.15625 -1.390625 -0.15625l-0.546875 0l0 5.671875l-2.75 0zm2.75 -7.84375l2.03125 0q1.96875 0 2.453125 -0.171875q0.5 -0.171875 0.78125 -0.578125q0.28125 -0.40625 0.28125 -1.015625q0 -0.6875 -0.375 -1.109375q-0.359375 -0.421875 -1.03125 -0.53125q-0.328125 -0.046875 -2.0 -0.046875l-2.140625 0l0 3.453125zm10.707336 7.84375l0 -13.59375l10.09375 0l0 2.296875l-7.34375 0l0 3.015625l6.828125 0l0 2.28125l-6.828125 0l0 3.703125l7.609375 0l0 2.296875l-10.359375 0zm23.396698 -1.71875q1.015625 0.71875 2.203125 1.140625l-1.015625 1.9375q-0.625 -0.1875 -1.21875 -0.5q-0.125 -0.078125 -1.828125 -1.21875q-1.328125 0.59375 -2.953125 0.59375q-3.140625 0 -4.921875 -1.84375q-1.765625 -1.84375 -1.765625 -5.1875q0 -3.328125 1.78125 -5.171875q1.78125 -1.859375 4.828125 -1.859375q3.03125 0 4.796875 1.859375q1.78125 1.84375 1.78125 5.171875q0 1.765625 -0.5 3.09375q-0.375 1.015625 -1.1875 1.984375zm-2.203125 -1.5625q0.53125 -0.609375 0.78125 -1.484375q0.265625 -0.890625 0.265625 -2.03125q0 -2.359375 -1.046875 -3.515625q-1.03125 -1.171875 -2.703125 -1.171875q-1.671875 0 -2.71875 1.171875q-1.046875 1.171875 -1.046875 3.515625q0 2.375 1.046875 3.5625q1.046875 1.1875 2.640625 1.1875q0.59375 0 1.125 -0.203125q-0.84375 -0.546875 -1.703125 -0.84375l0.765625 -1.578125q1.359375 0.46875 2.59375 1.390625zm5.7457886 -10.3125l2.75 0l0 7.359375q0 1.75 0.109375 2.265625q0.171875 0.84375 0.828125 1.359375q0.671875 0.5 1.8125 0.5q1.171875 0 1.765625 -0.484375q0.59375 -0.484375 0.71875 -1.171875q0.125 -0.703125 0.125 -2.3125l0 -7.515625l2.734375 0l0 7.140625q0 2.4375 -0.21875 3.453125q-0.21875 1.015625 -0.828125 1.71875q-0.59375 0.6875 -1.59375 1.109375q-1.0 0.40625 -2.609375 0.40625q-1.953125 0 -2.96875 -0.453125q-1.0 -0.453125 -1.59375 -1.171875q-0.578125 -0.71875 -0.75 -1.5q-0.28125 -1.171875 -0.28125 -3.453125l0 -7.25zm13.488586 13.59375l0 -13.59375l10.09375 0l0 2.296875l-7.34375 0l0 3.015625l6.828125 0l0 2.28125l-6.828125 0l0 3.703125l7.609375 0l0 2.296875l-10.359375 0zm11.756073 -4.421875l2.671875 -0.265625q0.234375 1.34375 0.96875 1.984375q0.75 0.625 2.0 0.625q1.328125 0 2.0 -0.5625q0.671875 -0.5625 0.671875 -1.3125q0 -0.484375 -0.28125 -0.8125q-0.28125 -0.34375 -0.984375 -0.59375q-0.484375 -0.171875 -2.203125 -0.59375q-2.203125 -0.546875 -3.09375 -1.34375q-1.265625 -1.125 -1.265625 -2.734375q0 -1.046875 0.59375 -1.953125q0.59375 -0.90625 1.703125 -1.375q1.109375 -0.46875 2.671875 -0.46875q2.5625 0 3.859375 1.125q1.296875 1.109375 1.359375 2.984375l-2.75 0.125q-0.171875 -1.046875 -0.75 -1.5q-0.578125 -0.46875 -1.75 -0.46875q-1.1875 0 -1.875 0.5q-0.4375 0.3125 -0.4375 0.84375q0 0.484375 0.421875 0.828125q0.515625 0.421875 2.515625 0.90625q2.0 0.46875 2.953125 0.984375q0.96875 0.5 1.515625 1.375q0.546875 0.875 0.546875 2.15625q0 1.171875 -0.65625 2.203125q-0.640625 1.015625 -1.828125 1.515625q-1.1875 0.484375 -2.96875 0.484375q-2.578125 0 -3.96875 -1.1875q-1.375 -1.1875 -1.640625 -3.46875zm16.193573 4.421875l0 -11.296875l-4.03125 0l0 -2.296875l10.8125 0l0 2.296875l-4.03125 0l0 11.296875l-2.75 0z" fill-rule="nonzero"></path><path fill="#000000" fill-opacity="0.0" d="m254.06561 4.3805776l302.2362 0l0 37.228344l-302.2362 0z" fill-rule="nonzero"></path><path fill="#980000" d="m263.89374 24.581825q0 -2.078125 0.625 -3.484375q0.453125 -1.046875 1.25 -1.859375q0.8125 -0.828125 1.765625 -1.234375q1.28125 -0.53125 2.9375 -0.53125q3.0 0 4.796875 1.859375q1.8125 1.859375 1.8125 5.1875q0 3.296875 -1.796875 5.15625q-1.78125 1.859375 -4.78125 1.859375q-3.03125 0 -4.828125 -1.84375q-1.78125 -1.859375 -1.78125 -5.109375zm2.828125 -0.09375q0 2.3125 1.0625 3.515625q1.078125 1.1875 2.71875 1.1875q1.640625 0 2.6875 -1.1875q1.046875 -1.1875 1.046875 -3.546875q0 -2.34375 -1.03125 -3.484375q-1.015625 -1.15625 -2.703125 -1.15625q-1.703125 0 -2.75 1.171875q-1.03125 1.15625 -1.03125 3.5zm14.933319 6.8125l-3.96875 -9.859375l2.734375 0l1.84375 5.03125l0.546875 1.6875q0.21875 -0.640625 0.265625 -0.84375q0.125 -0.421875 0.28125 -0.84375l1.875 -5.03125l2.671875 0l-3.90625 9.859375l-2.34375 0zm13.360077 -3.140625l2.609375 0.4375q-0.5 1.4375 -1.59375 2.1875q-1.078125 0.734375 -2.703125 0.734375q-2.5625 0 -3.796875 -1.671875q-0.96875 -1.34375 -0.96875 -3.40625q0 -2.4375 1.265625 -3.828125q1.28125 -1.390625 3.25 -1.390625q2.1875 0 3.453125 1.453125q1.28125 1.453125 1.234375 4.453125l-6.53125 0q0.015625 1.15625 0.625 1.8125q0.609375 0.640625 1.5 0.640625q0.609375 0 1.03125 -0.328125q0.421875 -0.34375 0.625 -1.09375zm0.15625 -2.625q-0.03125 -1.140625 -0.59375 -1.71875q-0.546875 -0.59375 -1.34375 -0.59375q-0.859375 0 -1.40625 0.625q-0.5625 0.609375 -0.546875 1.6875l3.890625 0zm7.0163574 5.765625l-2.609375 0l0 -9.859375l2.421875 0l0 1.40625q0.625 -0.984375 1.109375 -1.296875q0.5 -0.328125 1.140625 -0.328125q0.890625 0 1.71875 0.5l-0.8125 2.265625q-0.65625 -0.421875 -1.21875 -0.421875q-0.546875 0 -0.9375 0.296875q-0.375 0.296875 -0.59375 1.09375q-0.21875 0.78125 -0.21875 3.296875l0 3.046875zm7.479004 0l-3.96875 -9.859375l2.734375 0l1.84375 5.03125l0.546875 1.6875q0.21875 -0.640625 0.265625 -0.84375q0.125 -0.421875 0.28125 -0.84375l1.875 -5.03125l2.671875 0l-3.90625 9.859375l-2.34375 0zm7.6569824 -11.1875l0 -2.40625l2.609375 0l0 2.40625l-2.609375 0zm0 11.1875l0 -9.859375l2.609375 0l0 9.859375l-2.609375 0zm10.886414 -3.140625l2.609375 0.4375q-0.5 1.4375 -1.59375 2.1875q-1.078125 0.734375 -2.703125 0.734375q-2.5625 0 -3.796875 -1.671875q-0.96875 -1.34375 -0.96875 -3.40625q0 -2.4375 1.265625 -3.828125q1.28125 -1.390625 3.25 -1.390625q2.1875 0 3.453125 1.453125q1.28125 1.453125 1.234375 4.453125l-6.53125 0q0.015625 1.15625 0.625 1.8125q0.609375 0.640625 1.5 0.640625q0.609375 0 1.03125 -0.328125q0.421875 -0.34375 0.625 -1.09375zm0.15625 -2.625q-0.03125 -1.140625 -0.59375 -1.71875q-0.546875 -0.59375 -1.34375 -0.59375q-0.859375 0 -1.40625 0.625q-0.5625 0.609375 -0.546875 1.6875l3.890625 0zm6.3601074 5.765625l-3.125 -9.859375l2.53125 0l1.859375 6.46875l1.6875 -6.46875l2.515625 0l1.640625 6.46875l1.890625 -6.46875l2.5625 0l-3.15625 9.859375l-2.515625 0l-1.6875 -6.34375l-1.671875 6.34375l-2.53125 0zm17.257233 -5.0625q0 -1.296875 0.640625 -2.515625q0.640625 -1.21875 1.8125 -1.859375q1.171875 -0.640625 2.609375 -0.640625q2.25 0 3.671875 1.453125q1.421875 1.453125 1.421875 3.671875q0 2.234375 -1.4375 3.703125q-1.4375 1.46875 -3.625 1.46875q-1.359375 0 -2.59375 -0.609375q-1.21875 -0.609375 -1.859375 -1.796875q-0.640625 -1.1875 -0.640625 -2.875zm2.671875 0.140625q0 1.46875 0.6875 2.25q0.703125 0.765625 1.71875 0.765625q1.015625 0 1.703125 -0.765625q0.703125 -0.78125 0.703125 -2.265625q0 -1.453125 -0.703125 -2.234375q-0.6875 -0.78125 -1.703125 -0.78125q-1.015625 0 -1.71875 0.78125q-0.6875 0.78125 -0.6875 2.25zm8.177216 -4.9375l1.453125 0l0 -0.734375q0 -1.25 0.265625 -1.859375q0.265625 -0.609375 0.96875 -0.984375q0.71875 -0.390625 1.796875 -0.390625q1.109375 0 2.1875 0.328125l-0.359375 1.8125q-0.625 -0.140625 -1.203125 -0.140625q-0.5625 0 -0.8125 0.265625q-0.234375 0.265625 -0.234375 1.015625l0 0.6875l1.9375 0l0 2.0625l-1.9375 0l0 7.796875l-2.609375 0l0 -7.796875l-1.453125 0l0 -2.0625zm12.583496 9.859375l0 -13.59375l2.671875 0l5.578125 9.078125l0 -9.078125l2.546875 0l0 13.59375l-2.765625 0l-5.46875 -8.875l0 8.875l-2.5625 0zm19.12918 -3.140625l2.609375 0.4375q-0.5 1.4375 -1.59375 2.1875q-1.078125 0.734375 -2.703125 0.734375q-2.5625 0 -3.796875 -1.671875q-0.96875 -1.34375 -0.96875 -3.40625q0 -2.4375 1.265625 -3.828125q1.28125 -1.390625 3.25 -1.390625q2.1875 0 3.453125 1.453125q1.28125 1.453125 1.234375 4.453125l-6.53125 0q0.015625 1.15625 0.625 1.8125q0.609375 0.640625 1.5 0.640625q0.609375 0 1.03125 -0.328125q0.421875 -0.34375 0.625 -1.09375zm0.15625 -2.625q-0.03125 -1.140625 -0.59375 -1.71875q-0.546875 -0.59375 -1.34375 -0.59375q-0.859375 0 -1.40625 0.625q-0.5625 0.609375 -0.546875 1.6875l3.890625 0zm9.031982 -4.09375l0 2.078125l-1.78125 0l0 3.984375q0 1.203125 0.046875 1.40625q0.0625 0.1875 0.234375 0.328125q0.1875 0.125 0.453125 0.125q0.359375 0 1.046875 -0.25l0.21875 2.015625q-0.90625 0.390625 -2.0625 0.390625q-0.703125 0 -1.265625 -0.234375q-0.5625 -0.234375 -0.828125 -0.609375q-0.265625 -0.375 -0.375 -1.015625q-0.078125 -0.453125 -0.078125 -1.84375l0 -4.296875l-1.203125 0l0 -2.078125l1.203125 0l0 -1.953125l2.609375 -1.515625l0 3.46875l1.78125 0zm3.540802 9.859375l-3.125 -9.859375l2.53125 0l1.859375 6.46875l1.6875 -6.46875l2.515625 0l1.640625 6.46875l1.890625 -6.46875l2.5625 0l-3.15625 9.859375l-2.515625 0l-1.6875 -6.34375l-1.671875 6.34375l-2.53125 0zm12.073914 -5.0625q0 -1.296875 0.640625 -2.515625q0.640625 -1.21875 1.8125 -1.859375q1.171875 -0.640625 2.609375 -0.640625q2.25 0 3.671875 1.453125q1.421875 1.453125 1.421875 3.671875q0 2.234375 -1.4375 3.703125q-1.4375 1.46875 -3.625 1.46875q-1.359375 0 -2.59375 -0.609375q-1.21875 -0.609375 -1.859375 -1.796875q-0.640625 -1.1875 -0.640625 -2.875zm2.671875 0.140625q0 1.46875 0.6875 2.25q0.703125 0.765625 1.71875 0.765625q1.015625 0 1.703125 -0.765625q0.703125 -0.78125 0.703125 -2.265625q0 -1.453125 -0.703125 -2.234375q-0.6875 -0.78125 -1.703125 -0.78125q-1.015625 0 -1.71875 0.78125q-0.6875 0.78125 -0.6875 2.25zm11.817871 4.921875l-2.609375 0l0 -9.859375l2.421875 0l0 1.40625q0.625 -0.984375 1.109375 -1.296875q0.5 -0.328125 1.140625 -0.328125q0.890625 0 1.71875 0.5l-0.8125 2.265625q-0.65625 -0.421875 -1.21875 -0.421875q-0.546875 0 -0.9375 0.296875q-0.375 0.296875 -0.59375 1.09375q-0.21875 0.78125 -0.21875 3.296875l0 3.046875zm4.666504 0l0 -13.59375l2.609375 0l0 7.203125l3.0625 -3.46875l3.203125 0l-3.375 3.609375l3.609375 6.25l-2.796875 0l-2.484375 -4.421875l-1.21875 1.265625l0 3.15625l-2.609375 0zm27.934021 0l-2.984375 0l-1.1875 -3.09375l-5.4375 0l-1.125 3.09375l-2.90625 0l5.296875 -13.59375l2.90625 0l5.4375 13.59375zm-5.046875 -5.375l-1.875 -5.046875l-1.84375 5.046875l3.71875 0zm14.832336 -1.5625l-2.5625 0.46875q-0.140625 -0.78125 -0.59375 -1.171875q-0.453125 -0.390625 -1.1875 -0.390625q-0.984375 0 -1.5625 0.671875q-0.578125 0.671875 -0.578125 2.25q0 1.765625 0.578125 2.484375q0.59375 0.71875 1.59375 0.71875q0.75 0 1.21875 -0.421875q0.46875 -0.421875 0.671875 -1.453125l2.546875 0.4375q-0.390625 1.765625 -1.53125 2.671875q-1.125 0.890625 -3.03125 0.890625q-2.15625 0 -3.453125 -1.359375q-1.28125 -1.359375 -1.28125 -3.78125q0 -2.4375 1.296875 -3.796875q1.296875 -1.359375 3.484375 -1.359375q1.796875 0 2.859375 0.78125q1.0625 0.765625 1.53125 2.359375zm6.297577 -2.921875l0 2.078125l-1.78125 0l0 3.984375q0 1.203125 0.046875 1.40625q0.0625 0.1875 0.234375 0.328125q0.1875 0.125 0.453125 0.125q0.359375 0 1.046875 -0.25l0.21875 2.015625q-0.90625 0.390625 -2.0625 0.390625q-0.703125 0 -1.265625 -0.234375q-0.5625 -0.234375 -0.828125 -0.609375q-0.265625 -0.375 -0.375 -1.015625q-0.078125 -0.453125 -0.078125 -1.84375l0 -4.296875l-1.203125 0l0 -2.078125l1.203125 0l0 -1.953125l2.609375 -1.515625l0 3.46875l1.78125 0zm1.697052 -1.328125l0 -2.40625l2.609375 0l0 2.40625l-2.609375 0zm0 11.1875l0 -9.859375l2.609375 0l0 9.859375l-2.609375 0zm7.902069 0l-3.96875 -9.859375l2.734375 0l1.84375 5.03125l0.546875 1.6875q0.21875 -0.640625 0.265625 -0.84375q0.125 -0.421875 0.28125 -0.84375l1.875 -5.03125l2.671875 0l-3.90625 9.859375l-2.34375 0zm7.656952 -11.1875l0 -2.40625l2.609375 0l0 2.40625l-2.609375 0zm0 11.1875l0 -9.859375l2.609375 0l0 9.859375l-2.609375 0zm9.698944 -9.859375l0 2.078125l-1.78125 0l0 3.984375q0 1.203125 0.046875 1.40625q0.0625 0.1875 0.234375 0.328125q0.1875 0.125 0.453125 0.125q0.359375 0 1.046875 -0.25l0.21875 2.015625q-0.90625 0.390625 -2.0625 0.390625q-0.703125 0 -1.265625 -0.234375q-0.5625 -0.234375 -0.828125 -0.609375q-0.265625 -0.375 -0.375 -1.015625q-0.078125 -0.453125 -0.078125 -1.84375l0 -4.296875l-1.203125 0l0 -2.078125l1.203125 0l0 -1.953125l2.609375 -1.515625l0 3.46875l1.78125 0zm0.462677 0l2.78125 0l2.359375 7.0l2.296875 -7.0l2.703125 0l-3.484375 9.484375l-0.625 1.71875q-0.34375 0.859375 -0.65625 1.3125q-0.296875 0.46875 -0.703125 0.75q-0.40625 0.28125 -1.0 0.4375q-0.59375 0.15625 -1.328125 0.15625q-0.75 0 -1.46875 -0.15625l-0.234375 -2.046875q0.609375 0.125 1.09375 0.125q0.921875 0 1.34375 -0.53125q0.4375 -0.53125 0.671875 -1.359375l-3.75 -9.890625z" fill-rule="nonzero"></path></g></svg>

